<svg width="20" height="20" fill="none" xmlns="http://www.w3.org/2000/svg"><g clip-path="url(#clip0)" fill="#fff"><path d="M19.995 20.0001v-.0008H20v-7.335c0-3.5884-.7725-6.3525-4.9675-6.3525-2.0167 0-3.37 1.1066-3.9225 2.1558h-.0583V6.6468H7.0742v13.3525h4.1416v-6.6117c0-1.7408.33-3.4242 2.4859-3.4242 2.1241 0 2.1558 1.9867 2.1558 3.5359v6.5008h4.1375zM.33 6.6475h4.1467V20H.33V6.6475zM2.4017 0C1.0758 0 0 1.0758 0 2.4017c0 1.3258 1.0758 2.4241 2.4017 2.4241 1.3258 0 2.4016-1.0983 2.4016-2.4241C4.8025 1.0758 3.7267 0 2.4017 0z"/></g><defs><clipPath id="clip0"><path fill="#fff" d="M0 0h20v20H0z"/></clipPath></defs></svg>