<svg width="59" height="47" fill="none" xmlns="http://www.w3.org/2000/svg"><path d="M4.4876 39.2778c.23.2856.3524.6434.346 1.0106a1.6042 1.6042 0 01-.1232.6996 1.5986 1.5986 0 01-.4129.577 2.3184 2.3184 0 01-1.5582.4663H0v-6.405h2.6832a2.2838 2.2838 0 011.4866.4255c.1732.1456.3105.3297.4008.5377.0903.2079.1313.4341.1196.6607a1.4873 1.4873 0 01-.3116.9794 1.4542 1.4542 0 01-.8165.5006c.3634.0666.6914.2607.9255.5476zm-3.213-.9669h1.1469a1.0842 1.0842 0 00.7292-.2127.761.761 0 00.2462-.6258.788.788 0 00-.243-.6258 1.106 1.106 0 00-.7511-.2159H1.2746v1.6802zm1.9883 2.4563a.7956.7956 0 00.2711-.6509.8098.8098 0 00-.2773-.657 1.1804 1.1804 0 00-.7792-.2316H1.2746v1.7616h1.2185a1.2056 1.2056 0 00.7698-.2221zM9.9725 42.0313l-1.4927-2.5032h-.561v2.5032h-1.284v-6.405h2.4309a2.3906 2.3906 0 011.6922.5445 2.049 2.049 0 01.1807 2.6502 1.971 1.971 0 01-1.1593.6508l1.5894 2.5595H9.9725zm-2.0537-3.3761H8.969c.7293 0 1.0939-.3234 1.0939-.97a.9556.9556 0 00-.268-.7197 1.1348 1.1348 0 00-.8259-.2597H7.9064l.0124 1.9494zM16.9907 40.742h-2.5586l-.4518 1.2891H12.634l2.3498-6.333h1.4553l2.3404 6.333h-1.3462l-.4426-1.2891zm-.3428-.97l-.9349-2.7034-.9349 2.7034h1.8698zM25.7759 42.0312h-1.2746l-2.8578-4.3555v4.3555H20.372v-6.405h1.2715l2.8578 4.3806v-4.3806h1.2746v6.405zM33.0496 40.4981a2.7565 2.7565 0 01-1.1531 1.1295 3.7429 3.7429 0 01-1.7919.4037h-2.2688v-6.405h2.2688a3.8157 3.8157 0 011.7919.3943 2.7096 2.7096 0 011.1531 1.117 3.7363 3.7363 0 010 3.3605zm-1.4585-.1533a2.3524 2.3524 0 00.5638-1.5285c0-.5608-.2-1.103-.5638-1.5285a2.2103 2.2103 0 00-1.5956-.5445h-.8851v4.1459h.8851a2.2102 2.2102 0 001.5956-.5444zM17.7885 0S34.24 6.236 33.891 15.2599v15.263s-16.4391-6.2391-16.0963-15.263L17.7885 0zM48.5475 26.9496A22.4862 22.4862 0 0159 23.0822v-4.7779c-4.3227 1.6727-7.9897 4.7058-10.4525 8.6453z" fill="#AFB1B8"/><path d="M46.6808 28.389C49.2239 23.2478 53.6325 19.2805 59 17.3032V3.5358s-23.4292 8.8831-22.9337 21.7337V47s1.044-.3973 2.6863-1.142c0-.6947 0-1.3955.0748-2.0996.4849-5.9658 3.3097-11.4941 7.8534-15.3694z" fill="#AFB1B8"/><path d="M44.4526 36.4617a22.4931 22.4931 0 01.8196-4.4494c-2.8292 3.3466-4.5425 7.4994-4.899 11.8744-.0343.413-.053.826-.0623 1.2516a68.0278 68.0278 0 004.5063-2.3843 22.5735 22.5735 0 01-.3646-6.2923zM45.3844 36.54a21.5808 21.5808 0 00.2898 5.6978c6.4011-3.8455 13.5938-9.7874 13.3165-16.9683v-.6258c-4.5734.5138-8.8522 2.5211-12.179 5.7134a21.4923 21.4923 0 00-1.4273 6.1829z" fill="#AFB1B8"/></svg>