<svg width="89" height="46" fill="none" xmlns="http://www.w3.org/2000/svg"><path d="M44.7405 21.3533c-.4179-.6101-.6179-1.3313-.5704-2.0571v-2.9827c0-.9143.1891-1.6091.5672-2.0844.3782-.4754 1.0278-.7121 1.9487-.71.8653 0 1.4796.2022 1.8428.6068.3962.5162.589 1.1474.5448 1.7841v.7009h-1.548v-.71a3.9613 3.9613 0 00-.0448-.6948.6886.6886 0 00-.2212-.4127.836.836 0 00-.5608-.1608c-.2121-.015-.4224.0456-.5897.1699-.1349.1218-.2247.2813-.2564.4551a3.777 3.777 0 00-.0609.7374v3.6197a1.9998 1.9998 0 00.1987 1.0165.7346.7346 0 00.3089.2463.781.781 0 00.3994.0571c.1983.0155.3951-.0434.548-.1638a.747.747 0 00.2308-.44 4.3683 4.3683 0 00.048-.7252v-.7342h1.548v.6705c.0435.6637-.1446 1.3225-.5352 1.8752-.3557.4429-.9615.6644-1.8524.6644-.891 0-1.5641-.2366-1.9455-.7282zM51.1857 21.3837c-.391-.4643-.5865-1.1409-.5865-2.036v-3.1373c0-.886.1955-1.5566.5865-2.0117.391-.4551 1.0448-.6817 1.9614-.6796.9102 0 1.5608.2265 1.9518.6796.391.4551.5897 1.1257.5897 2.0117v3.1373c0 .886-.1987 1.5657-.5961 2.0329-.3974.4673-1.0448.7009-1.9454.7009-.9005 0-1.5672-.2366-1.9614-.6978zm2.6825-.7525a1.8923 1.8923 0 00.1859-.9285v-3.8412a1.8428 1.8428 0 00-.1827-.9103.7381.7381 0 00-.3161-.2501.7848.7848 0 00-.4082-.0533.7941.7941 0 00-.4092.0539.749.749 0 00-.3183.2495 1.8019 1.8019 0 00-.1859.9103v3.8594a1.8591 1.8591 0 00.1859.9285.9605.9605 0 00.3265.2301c.125.0537.2606.0815.3978.0815.1373 0 .2729-.0278.3978-.0815a.9595.9595 0 00.3265-.2301v-.0182zM57.5505 13.6106h1.6666l1.2531 5.7886 1.282-5.7886h1.6217l.1635 8.3552h-1.1987l-.1282-5.8068-1.2371 5.8068h-.9615l-1.282-5.828-.1185 5.828h-1.2115l.1506-8.3552zM65.4059 13.6106h2.5959c1.4956 0 2.2434.7908 2.2434 2.3725 0 1.5149-.7873 2.2713-2.362 2.2693h-.8845v3.7134h-1.6025l.0097-8.3552zm2.2177 3.5708c.1584.0191.3192.0053.4713-.0403a1.1175 1.1175 0 00.4101-.2236c.1837-.2822.2648-.6136.2307-.9435a2.8545 2.8545 0 00-.0769-.7585.63.63 0 00-.118-.2292.6696.6696 0 00-.2025-.1682 1.5285 1.5285 0 00-.7147-.1335h-.6217v2.4968h.6217zM72.5561 13.6106h1.721l1.7659 8.3552h-1.4935l-.3493-1.9265H72.665l-.3589 1.9265h-1.5159l1.7659-8.3552zm1.471 5.4609l-.5993-3.5071-.5993 3.5071h1.1986zM77.4691 13.6106h1.1218l2.1473 4.7662v-4.7662h1.33v8.3552H81.001l-2.1601-4.9755v4.9755h-1.375l.0032-8.3552zM85.1834 18.7801l-1.7851-5.1578h1.5031l1.0897 3.3131 1.0223-3.3131h1.4711l-1.7627 5.1578v3.1857h-1.5384v-3.1857zM47.2148 25.6189v.4369h-1.3076v3.3951h-.548v-3.3951h-1.314v-.4369h3.1696zM51.3138 29.4512h-.423a.1765.1765 0 01-.1186-.0364.1958.1958 0 01-.0705-.088l-.3782-.9102h-1.814l-.3782.9102a.2566.2566 0 01-.0577.1032.1832.1832 0 01-.1186.0364h-.423l1.6025-3.8319h.5576l1.6217 3.8167zm-2.6537-1.4229h1.5128l-.641-1.5595a2.9637 2.9637 0 01-.1186-.361c-.0224.0728-.0417.1426-.0609.2033l-.0577.1608-.6346 1.5564zM54.0765 29.0748c.1004.005.2009.005.3013 0a1.6469 1.6469 0 00.2564-.0455 1.82 1.82 0 00.2307-.0698c.0705-.0273.141-.0607.2148-.094v-.8618h-.641a.1206.1206 0 01-.0866-.0303.089.089 0 01-.0244-.0315.0845.0845 0 01-.0076-.0383v-.2943h1.2435v1.4686a2.3546 2.3546 0 01-.3205.182 2.2228 2.2228 0 01-.3557.1305 2.6534 2.6534 0 01-.4007.0789 4.4554 4.4554 0 01-.4679.0243 2.2523 2.2523 0 01-.8076-.1426 1.9345 1.9345 0 01-.641-.4006 1.849 1.849 0 01-.4134-.6068 2.0739 2.0739 0 01-.1475-.795 2.1552 2.1552 0 01.1443-.8011 1.7576 1.7576 0 01.4134-.6069 1.9111 1.9111 0 01.641-.3975 2.4746 2.4746 0 01.8589-.1426c.1492-.0002.2982.011.4455.0334.1302.0201.258.0526.3814.0971a1.764 1.764 0 01.3205.1517c.0982.0599.1914.1268.2788.2003l-.1538.2367a.14.14 0 01-.052.0525.15.15 0 01-.073.0203.1963.1963 0 01-.0994-.0304 1.9063 1.9063 0 01-.157-.091 1.3689 1.3689 0 00-.2148-.1032 1.869 1.869 0 00-.2948-.0849 2.2561 2.2561 0 00-.407-.0334 1.7433 1.7433 0 00-.6186.1062 1.3361 1.3361 0 00-.4711.3034c-.1328.1378-.2343.3-.2981.4764a1.9531 1.9531 0 000 1.2775 1.37 1.37 0 00.3205.4824c.1315.1315.291.2349.4679.3035.2038.0662.4198.092.6346.0758zM59.1851 29.014h1.75v.4369h-2.2852v-3.832h.5481l-.0129 3.3951zM62.7555 29.4509h-.5481v-3.832h.5481v3.832zM64.7938 25.6371a.2694.2694 0 01.0833.0698l2.3428 2.8886a.9716.9716 0 010-.1365v-2.8552h.4775v3.8474h-.2756a.2398.2398 0 01-.1186-.0212.3138.3138 0 01-.0865-.0729l-2.3396-2.8855v2.9796h-.4583v-3.8323h.2853a.233.233 0 01.0897.0182zM71.7324 25.6189v.4217h-1.9421v1.2653h1.5736v.4065h-1.5736v1.3078h1.9421v.4217h-2.5062v-3.823h2.5062zM14.3035 1.954l24.335 6.5413v22.922l-24.335-6.5383V1.954zM12.7427 0v25.9925l27.4534 7.3818V7.3848L12.7427 0z" fill="#AFB1B8"/><path d="M27.4565 45.4402L0 38.0522V12.0625l27.4565 7.3849v25.9928z" fill="#AFB1B8"/><path d="M13.1978 1.6596l24.0177 6.4593-10.2141 9.6723-24.0208-6.4624 10.2172-9.6692zM12.7427 0L0 12.0631l27.4565 7.3847L40.196 7.3847 12.7427 0zM29.0013 43.978L40.196 33.3774l-11.1947-3.0127V43.978z" fill="#AFB1B8"/></svg>