<svg width="41" height="43" fill="none" xmlns="http://www.w3.org/2000/svg"><path d="M6.3455 41.7946a.1178.1178 0 01.0435.0095.113.113 0 01.0362.0248l.2058.2157a1.6844 1.6844 0 01-.5788.4093 2.0742 2.0742 0 01-.8205.147 2.011 2.011 0 01-.7716-.1372 1.6719 1.6719 0 01-.5813-.3873 1.7453 1.7453 0 01-.3755-.598 2.1631 2.1631 0 01-.1312-.7671 2.0165 2.0165 0 01.1414-.7696 1.7867 1.7867 0 01.3987-.5981 1.8355 1.8355 0 01.6173-.3897 2.2284 2.2284 0 01.7948-.1372 1.9683 1.9683 0 01.7382.125c.2038.0842.3908.2011.553.3456l-.1723.2304a.1728.1728 0 01-.0437.0416.1093.1093 0 01-.0695.0172.157.157 0 01-.0746-.0245l-.0926-.0613-.1286-.0784a1.4001 1.4001 0 00-.1723-.076 1.6764 1.6764 0 00-.234-.0613 1.6428 1.6428 0 00-.3061-.0245 1.5321 1.5321 0 00-.571.1029 1.2902 1.2902 0 00-.4476.2893 1.3422 1.3422 0 00-.2907.4607 1.6825 1.6825 0 00-.1054.6079c-.0031.2101.0326.4192.1054.6176.0628.1691.1598.3248.2855.4583.1179.1245.2639.2217.427.2843a1.408 1.408 0 00.5299.0981c.105.0015.21-.005.3138-.0196a1.1666 1.1666 0 00.4758-.1642c.072-.0453.14-.0961.2032-.152a.153.153 0 01.0978-.0392zM12.2871 40.7108a2.0289 2.0289 0 01-.1389.7622 1.6555 1.6555 0 01-.3874.5918 1.7535 1.7535 0 01-.608.3885 2.296 2.296 0 01-1.5638 0 1.777 1.777 0 01-.6045-.3897 1.7408 1.7408 0 01-.391-.5979 2.1666 2.1666 0 010-1.5269 1.8026 1.8026 0 01.391-.6004 1.78 1.78 0 01.6045-.3749 2.2577 2.2577 0 011.5638 0c.2285.0884.4352.2211.607.3896a1.757 1.757 0 01.3884.5906c.0953.2455.1424.5055.1389.7671zm-.5401 0a1.7586 1.7586 0 00-.0978-.6127 1.2767 1.2767 0 00-.2752-.4582 1.2078 1.2078 0 00-.4347-.2892 1.6577 1.6577 0 00-1.1368 0 1.2077 1.2077 0 00-.4347.2892 1.2473 1.2473 0 00-.2778.4582 1.9614 1.9614 0 000 1.2254c.058.1696.1526.3257.2778.4583a1.203 1.203 0 00.4346.2867 1.6983 1.6983 0 001.1369 0 1.2022 1.2022 0 00.4347-.2867 1.2973 1.2973 0 00.2752-.4583 1.744 1.744 0 00.0978-.6127zM16.3408 41.3532l.054.1372c.0206-.049.0386-.0931.0592-.1372a1.2797 1.2797 0 01.0669-.1348l1.3143-2.2764c.0258-.0392.0489-.0637.0746-.0711a.3232.3232 0 01.1081-.0122h.3883v3.7026h-.4604v-2.7225-.1151a1.1298 1.1298 0 010-.1275l-1.322 2.3084a.2024.2024 0 01-.0774.0842.2158.2158 0 01-.113.0309h-.0746a.2125.2125 0 01-.1132-.0305.1996.1996 0 01-.0771-.0846l-1.3607-2.3231v2.9724h-.4449v-3.6952h.3883a.3232.3232 0 01.1081.0122.1507.1507 0 01.072.0711l1.3427 2.2789a.8123.8123 0 01.0668.1323zM21.2871 41.1692v1.387h-.5145v-3.6977h1.1472a2.249 2.249 0 01.6405.0809 1.226 1.226 0 01.4527.2303.9484.9484 0 01.2572.3627c.0607.1508.0904.3114.0874.4729a1.1463 1.1463 0 01-.0951.4729 1.013 1.013 0 01-.2778.37 1.2708 1.2708 0 01-.4553.2451 1.9945 1.9945 0 01-.6199.0857l-.6224-.0098zm0-.3969h.6224a1.3233 1.3233 0 00.3987-.0564.843.843 0 00.2881-.1593.6511.6511 0 00.1749-.245.7676.7676 0 00.0617-.3112.6774.6774 0 00-.0516-.3012.7072.7072 0 00-.1799-.2526c-.1965-.1462-.4433-.217-.6919-.1985h-.6224v1.5242zM28.201 42.5612h-.4064a.1813.1813 0 01-.1132-.0344.226.226 0 01-.0669-.0857l-.3498-.8945H25.508l-.3627.8945a.1991.1991 0 01-.0643.0833.1811.1811 0 01-.1158.0368h-.4064l1.5433-3.703h.535l1.5639 3.703zm-2.5464-1.3749h1.4507l-.6122-1.5072a2.6 2.6 0 01-.1158-.348l-.0591.1936a1.8403 1.8403 0 01-.0566.1569l-.607 1.5047zM30.4233 38.8754a.2227.2227 0 01.0772.0662l2.2506 2.7913v-.1299V38.8582h.4604v3.703h-.2572a.2302.2302 0 01-.1054-.0221.2829.2829 0 01-.0823-.0686l-2.2481-2.7888a1.083 1.083 0 010 .1274v2.7521h-.4604v-3.703h.2727a.2248.2248 0 01.0925.0172zM37.0029 41.0884v1.4704h-.5145v-1.4704l-1.4224-2.23h.4605a.173.173 0 01.1106.0318.3143.3143 0 01.0694.0833l.89 1.4386a2.26 2.26 0 01.0926.1715c.0257.0539.0463.1054.0643.1569l.0669-.1593a1.3006 1.3006 0 01.0874-.1691l.8771-1.4484a.3787.3787 0 01.0669-.0784.1612.1612 0 01.1106-.0367h.4656l-1.425 2.2398zM16.0862 32.6443c.2238.0269.4501.049.679.0686 3.4706-1.4792 6.4066-3.9002 8.441-6.9603 2.0344-3.0602 3.077-6.6237 2.9974-10.2453l-3.8248-3.644c.7777 3.8558.4139 7.8417-1.0506 11.5118-1.4646 3.6701-3.9721 6.8795-7.242 9.2692z" fill="#AFB1B8"/><path d="M14.7204 32.4748l.1029.0196c3.4942-2.3812 6.1583-5.7064 7.6476-9.5456 1.4894-3.8391 1.7356-8.0157.7067-11.9896L17.7298 5.769c2.2035 4.2663 3.0904 9.0408 2.5577 13.7684-.5328 4.7276-2.4633 9.214-5.5671 12.9374zM33.1961 19.7861c-.9255 3.9793-3.1734 7.568-6.4098 10.2335a20.218 20.218 0 01-3.0454 2.0829c2.6354-.7379 5.0576-2.0427 7.08-3.8135 2.0224-1.7709 3.591-3.9606 4.5847-6.4003l-2.2095-2.1026z" fill="#AFB1B8"/><path d="M32.3293 19.2002l-3.1458-2.9971c-.0601 3.417-1.0797 6.7563-2.9528 9.6708-1.8731 2.9146-4.5313 5.2979-7.6984 6.9025h.0154a18.7625 18.7625 0 002.1118-.1201c2.9598-1.151 5.5744-2.9821 7.6107-5.3301 2.0363-2.348 3.4308-5.1397 4.0591-8.126zM15.1757 3.5803L11.4229 0C8.0681 1.2351 5.1828 3.4064 3.1446 6.2297 1.1065 9.053.0105 12.3968 0 15.8234c.0126 3.7863 1.3502 7.4604 3.8012 10.4409 2.451 2.9805 5.8752 5.0971 9.7309 6.0148 3.4419-3.9953 5.4571-8.9321 5.7526-14.0931.2956-5.161-1.1438-10.2774-4.109-14.6057zM41 18.649c-.0136-4.4922-1.8927-8.7968-5.2268-11.9733C32.4391 3.4992 27.921 1.709 23.2059 1.696c-2.1788-.0021-4.3391.381-6.3712 1.1298l22.977 21.8908c.7867-1.9351 1.1897-3.9925 1.1883-6.0676z" fill="#AFB1B8"/></svg>