<svg width="70" height="70" fill="none" xmlns="http://www.w3.org/2000/svg"><path d="M69.9433 9.8964a1.1682 1.1682 0 00-.9415-.7934l-4.179-.6078-1.8702-3.787c-.392-.7981-1.6999-.7981-2.0918 0l-1.8702 3.787-4.1792.608a1.1694 1.1694 0 00-.9427.7933c-.1364.4224-.0234.8867.2952 1.1959l3.0252 2.9483-.7139 4.1627c-.0747.4375.105.8797.4632 1.1411a1.161 1.161 0 001.2296.0886l3.7381-1.9659 3.7381 1.9659c.1704.0898.3582.1341.5437.1341.2415 0 .4831-.0746.6861-.2228a1.165 1.165 0 00.4632-1.1411l-.7139-4.1628 3.0252-2.9482a1.1704 1.1704 0 00.2948-1.1959zm-5.3877 2.9027a1.1669 1.1669 0 00-.3348 1.0325l.4177 2.4372-2.1886-1.1503a1.1636 1.1636 0 00-.5438-.1342c-.1866 0-.3721.0443-.5437.1342l-2.1888 1.1503.4177-2.4372a1.1677 1.1677 0 00-.3348-1.0325l-1.7722-1.7266 2.4477-.3559a1.1664 1.1664 0 00.8786-.6382l1.0943-2.2167 1.0943 2.2167c.1704.3441.4982.5834.8786.6382l2.4477.3559-1.7699 1.7266zM57.167 44.8923h-2.3334v2.3334h2.3334v-2.3334zM57.167 49.5591h-2.3334v2.3334h2.3334v-2.3334zM59.5004 47.2257H57.167v2.3334h2.3334v-2.3334zM54.8337 47.2257h-2.3334v2.3334h2.3334v-2.3334zM49.0002 57.7259h-2.3334v2.3334h2.3334v-2.3334zM49.0002 62.3926h-2.3334v2.3334h2.3334v-2.3334zM51.3337 60.0593h-2.3335v2.3334h2.3335v-2.3334zM46.6668 60.0593h-2.3334v2.3334h2.3334v-2.3334zM35 53.0592h-2.3334v2.3334H35v-2.3334zM35 57.7259h-2.3334v2.3334H35v-2.3334zM37.3334 55.3925H35v2.3334h2.3334v-2.3334zM32.6666 55.3925h-2.3334v2.3334h2.3334v-2.3334zM12.833 13.3918h-2.3334v2.3334h2.3334v-2.3334zM12.833 18.0587h-2.3334v2.3334h2.3334v-2.3334zM15.1663 15.7253h-2.3334v2.3334h2.3334v-2.3334zM10.4996 15.7253H8.1662v2.3334h2.3334v-2.3334z" fill="#2196F3"/><path d="M54.0635 30.9738c-.6287-.8482-1.5516-1.3941-2.5993-1.5412-1.0523-.1493-2.0907.1271-2.9307.77l-2.7383 2.0988-.0012.0012-4.1511 3.0999-2.9704-1.183c5.2967-2.3765 8.9987-7.6745 8.9987-13.8253 0-8.3628-6.831-15.1668-15.2276-15.1668s-15.2274 6.804-15.2274 15.1668c0 3.0311.9064 5.8498 2.45 8.2216l-6.0458-.0525h-.0105c-.0187 0-.0338.0093-.0513.0105a1.1432 1.1432 0 00-.3395.0677c-.028.0105-.0571.0164-.0839.0291-.014.0059-.028.007-.042.014l-7.0724 3.4918c-.0013 0-.0023 0-.0023.0011l-4.1419 1.9918a.8978.8978 0 00-.1377.077C.088 35.3452-.4743 37.5036.43 39.2676c.4819.938 1.302 1.6288 2.3101 1.9449a3.9556 3.9556 0 001.1795.1808c.6336 0 1.2613-.1551 1.8363-.4619l3.0358-1.6147 4.9525-2.5574 2.9681-.0175L4.8085 48.5884c-.0011.0012-.0024.0012-.0036.0023l-2.9284 2.9167c-.6918.6884-1.0722 1.6018-1.0722 2.5761 0 .973.3804 1.8888 1.0722 2.5784.7105.707 1.645 1.0617 2.5795 1.0617.9357 0 1.869-.3547 2.5818-1.0617l2.8747-2.8631 3.8081-2.8432 1.9706 1.9623-3.8536 3.8373c-.0011.0012-.0024.0012-.0036.0023l-2.9284 2.9166c-.6918.6884-1.0722 1.6019-1.0722 2.5761 0 .9731.3804 1.8888 1.0722 2.5785.7105.7069 1.6462 1.0616 2.5807 1.0616.9345 0 1.8702-.3547 2.5819-1.0616l2.9295-2.9167 4.6865-4.6667c.0012-.0012.0012-.0023.0023-.0036l2.2086-2.1875-.0082-.0082c.014-.0139.0338-.0187.0479-.0338l11.3005-12.3773 7.5928 1.0804c.0548.0082.1096.0116.1645.0116.1412 0 .2777-.0338.4095-.084.0385-.0139.0723-.0326.1085-.0512.042-.0211.0863-.0327.1261-.0595l7.0292-4.6667c.0257-.0175.0397-.0455.0641-.0641.028-.0222.0631-.0315.0886-.0561l2.7813-2.6052c1.4472-1.356 1.6467-3.5773.4636-5.1663zM4.6603 38.8722c-.3792.203-.8097.2438-1.2215.1132-.4084-.1271-.7397-.4061-.9334-.7829-.3523-.686-.1482-1.5214.469-1.9728l2.8736-1.3826.6918 2.0219.2905.8493-2.17 1.1539zm7.6499-3.9981l-3.3868 1.75-.5588-1.6334-.4013-1.1737 4.4335-2.1888-.0866 3.2459zm33.03-14.4822c0 2.009-.4795 3.9038-1.3102 5.5989l-9.1468-4.1546c-.0957-1.2541-.7466-2.352-1.7243-3.0357l3.2026-10.632c5.2011 1.6545 8.9787 6.5067 8.9787 12.2234zm-25.7883 0c0-7.076 5.7844-12.8336 12.8942-12.8336.553 0 1.0943.0467 1.6298.1143l-3.1325 10.3988c-.042-.0013-.0817-.0129-.1249-.0129-2.2587 0-4.0963 1.8317-4.0963 4.0834s1.8376 4.0835 4.0963 4.0835c1.519 0 2.8315-.8388 3.5397-2.0663l8.4491 3.8385c-2.3509 3.164-6.1135 5.2279-10.3614 5.2279-7.1096 0-12.894-5.7576-12.894-12.8336zm13.0295 1.75c0 .9649-.7911 1.7501-1.7629 1.7501-.9718 0-1.7628-.7852-1.7628-1.7501 0-.9648.791-1.75 1.7628-1.75.9718 0 1.7629.7852 1.7629 1.75zM5.3919 55.0075c-.5168.5121-1.3534.511-1.869.0012-.2486-.2486-.385-.5763-.385-.9252 0-.3477.1364-.6755.385-.9216l2.1045-2.0967 1.862 1.854-2.0975 2.0883zm7.0303 8.1668c-.5168.5122-1.3545.5134-1.8702.0013-.2486-.2486-.385-.5763-.385-.9252 0-.3477.1364-.6756.385-.9217l2.1059-2.0977.8809.8763.9823.9777-2.0989 2.0893zm7.6162-7.5881c-.0013.0011-.0024.0011-.0036.0023l-3.8606 3.8501-.8809-.8763-.9823-.9777 3.857-3.8395v-.0011c.0013-.0012.0023-.0012.0036-.0023.0875-.0875.1423-.1925.196-.2963.0152-.0303.0443-.056.0572-.0875.0362-.0898.042-.1866.056-.2812.007-.0538.0304-.1038.0304-.1588 0-.0782-.028-.1539-.0443-.231-.014-.07-.014-.1412-.0409-.2088-.0443-.1096-.1202-.2064-.1995-.301-.0221-.0257-.0303-.0584-.0548-.0829h-.0012c-.0012-.0011-.0012-.0036-.0023-.0046l-3.5153-3.5001c-.0373-.0373-.0851-.0525-.1271-.0839-.0618-.0479-.1213-.0922-.1902-.1261-.0664-.0327-.1341-.0525-.2041-.0712-.0747-.0211-.147-.0374-.2252-.0432-.0712-.0047-.1377.0023-.2088.0105-.0782.0093-.1516.0198-.2275.0443-.0735.0234-.1388.0595-.2064.098-.0432.0245-.0922.0327-.1331.063l-3.8791 2.8958-1.9706-1.9624 5.2478-5.2197 9.5388 9.3814-2.029 2.0102zm14.9161-15.349c-.0338-.0046-.0654.0082-.0991.0059a1.1477 1.1477 0 00-.252.0152c-.0665.0116-.1295.0245-.1925.0466-.0747.0257-.1423.0607-.2113.1027a1.1192 1.1192 0 00-.1819.1341c-.0281.0245-.0618.0362-.0875.0641L23.6527 51.8621l-9.4676-9.3114 6.1974-6.1648c.4562-.455.4586-1.1935.0035-1.6509-.2298-.2298-.5319-.343-.8341-.3418v-.0011l-4.8534.0292.0607-3.5164 6.7901.0584c2.7673 2.8304 6.6267 4.5956 10.8968 4.5956.9566 0 1.89-.0991 2.7988-.2684.0875.07.1737.1413.2835.1856l5.2712 2.1.3336 1.659.3896 1.9366-6.5683-.9345zm8.8399.3897l-.6848-3.4079 3.164-2.3626.8284 1.099 1.2425 1.6497-4.5501 3.0218zm8.2111-6.1928l-1.8329 1.7174-2.037-2.7044 1.8188-1.3941c.3395-.2613.7677-.3675 1.1877-.3127.4223.0595.7957.28 1.05.6218.4738.6382.3932 1.5284-.1866 2.072z" fill="#212121"/><path d="M29.7545 40.5651l-4.6877-4.6667c-.4538-.4538-1.1913-.4538-1.6463 0l-4.6865 4.6667a1.1722 1.1722 0 00-.343.8271c0 .3104.1225.6079.343.8272l4.6865 4.6667c.2275.2263.5263.3395.8238.3395s.5961-.1132.8225-.3395l4.6877-4.6667a1.1713 1.1713 0 00.3442-.8272c0-.3103-.1238-.6078-.3442-.8271zm-5.5102 3.8477l-3.0334-3.0206 3.0334-3.0205 3.0345 3.0205-3.0345 3.0206zM37.5468 11.0923l-.5635 2.2658c.1552.0385 3.8011.9882 3.8011 4.7006h2.3334c-.0001-4.4126-3.6436-6.4869-5.571-6.9664zM43.1178 20.3919h-2.3334v2.3334h2.3334v-2.3334z" fill="#212121"/></svg>